<?xml version="1.0" encoding="utf-8" standalone="no"?>
<!DOCTYPE svg PUBLIC "-//W3C//DTD SVG 1.1//EN"
  "http://www.w3.org/Graphics/SVG/1.1/DTD/svg11.dtd">
<!-- Created with matplotlib (http://matplotlib.org/) -->
<svg height="345.6pt" version="1.1" viewBox="0 0 460.8 345.6" width="460.8pt" xmlns="http://www.w3.org/2000/svg" xmlns:xlink="http://www.w3.org/1999/xlink">
 <defs>
  <style type="text/css">
*{stroke-linecap:butt;stroke-linejoin:round;}
  </style>
 </defs>
 <g id="figure_1">
  <g id="patch_1">
   <path d="M 0 345.6 
L 460.8 345.6 
L 460.8 0 
L 0 0 
z
" style="fill:#ffffff;"/>
  </g>
  <g id="patch_2">
   <path d="M 57.6 307.584 
L 414.72 307.584 
L 414.72 41.472 
L 57.6 41.472 
z
" style="fill:#ffffff;"/>
  </g>
  <g id="pane3d_1">
   <g id="patch_3">
    <path d="M 104.941774 248.782626 
L 207.151387 183.537994 
L 205.449705 58.866209 
L 97.541237 117.48717 
" style="fill:#f2f2f2;opacity:0.5;stroke:#f2f2f2;stroke-linejoin:miter;"/>
   </g>
  </g>
  <g id="pane3d_2">
   <g id="patch_4">
    <path d="M 207.151387 183.537994 
L 372.72135 220.013954 
L 379.648599 91.582742 
L 205.449705 58.866209 
" style="fill:#e6e6e6;opacity:0.5;stroke:#e6e6e6;stroke-linejoin:miter;"/>
   </g>
  </g>
  <g id="pane3d_3">
   <g id="patch_5">
    <path d="M 104.941774 248.782626 
L 279.143747 291.264825 
L 372.72135 220.013954 
L 207.151387 183.537994 
" style="fill:#ececec;opacity:0.5;stroke:#ececec;stroke-linejoin:miter;"/>
   </g>
  </g>
  <g id="axis3d_1">
   <g id="line2d_1">
    <path d="M 104.941774 248.782626 
L 279.143747 291.264825 
" style="fill:none;stroke:#000000;stroke-linecap:square;stroke-width:0.8;"/>
   </g>
   <g id="Line3DCollection_1">
    <path d="M 108.591973 249.672791 
L 210.632122 184.304818 
L 209.104042 59.552535 
" style="fill:none;stroke:#b0b0b0;stroke-width:0.8;"/>
    <path d="M 128.018425 254.410271 
L 229.148442 188.384064 
L 228.549489 63.204611 
" style="fill:none;stroke:#b0b0b0;stroke-width:0.8;"/>
    <path d="M 147.648378 259.197379 
L 247.844648 192.50294 
L 248.193456 66.893971 
" style="fill:none;stroke:#b0b0b0;stroke-width:0.8;"/>
    <path d="M 167.485047 264.034897 
L 266.723376 196.662026 
L 268.039 70.62119 
" style="fill:none;stroke:#b0b0b0;stroke-width:0.8;"/>
    <path d="M 187.531714 268.923628 
L 285.787311 200.861914 
L 288.089238 74.386853 
" style="fill:none;stroke:#b0b0b0;stroke-width:0.8;"/>
    <path d="M 207.791733 273.864388 
L 305.039192 205.103208 
L 308.347356 78.191558 
" style="fill:none;stroke:#b0b0b0;stroke-width:0.8;"/>
    <path d="M 228.268527 278.858012 
L 324.481811 209.386522 
L 328.816601 82.035915 
" style="fill:none;stroke:#b0b0b0;stroke-width:0.8;"/>
    <path d="M 248.965593 283.905354 
L 344.118019 213.712485 
L 349.500293 85.920547 
" style="fill:none;stroke:#b0b0b0;stroke-width:0.8;"/>
    <path d="M 269.886507 289.007285 
L 363.950719 218.081736 
L 370.401819 89.846092 
" style="fill:none;stroke:#b0b0b0;stroke-width:0.8;"/>
   </g>
   <g id="xtick_1">
    <g id="line2d_2">
     <path d="M 109.470984 249.109687 
L 106.830678 250.801095 
" style="fill:none;stroke:#000000;stroke-linecap:square;stroke-width:0.8;"/>
    </g>
    <g id="text_1">
     <!-- 10 -->
     <defs>
      <path d="M 12.40625 8.296875 
L 28.515625 8.296875 
L 28.515625 63.921875 
L 10.984375 60.40625 
L 10.984375 69.390625 
L 28.421875 72.90625 
L 38.28125 72.90625 
L 38.28125 8.296875 
L 54.390625 8.296875 
L 54.390625 0 
L 12.40625 0 
z
" id="DejaVuSans-31"/>
      <path d="M 31.78125 66.40625 
Q 24.171875 66.40625 20.328125 58.90625 
Q 16.5 51.421875 16.5 36.375 
Q 16.5 21.390625 20.328125 13.890625 
Q 24.171875 6.390625 31.78125 6.390625 
Q 39.453125 6.390625 43.28125 13.890625 
Q 47.125 21.390625 47.125 36.375 
Q 47.125 51.421875 43.28125 58.90625 
Q 39.453125 66.40625 31.78125 66.40625 
z
M 31.78125 74.21875 
Q 44.046875 74.21875 50.515625 64.515625 
Q 56.984375 54.828125 56.984375 36.375 
Q 56.984375 17.96875 50.515625 8.265625 
Q 44.046875 -1.421875 31.78125 -1.421875 
Q 19.53125 -1.421875 13.0625 8.265625 
Q 6.59375 17.96875 6.59375 36.375 
Q 6.59375 54.828125 13.0625 64.515625 
Q 19.53125 74.21875 31.78125 74.21875 
z
" id="DejaVuSans-30"/>
     </defs>
     <g transform="translate(94.910259 271.115644)scale(0.1 -0.1)">
      <use xlink:href="#DejaVuSans-31"/>
      <use x="63.623047" xlink:href="#DejaVuSans-30"/>
     </g>
    </g>
   </g>
   <g id="xtick_2">
    <g id="line2d_3">
     <path d="M 128.889919 253.841286 
L 126.272174 255.550371 
" style="fill:none;stroke:#000000;stroke-linecap:square;stroke-width:0.8;"/>
    </g>
    <g id="text_2">
     <!-- 20 -->
     <defs>
      <path d="M 19.1875 8.296875 
L 53.609375 8.296875 
L 53.609375 0 
L 7.328125 0 
L 7.328125 8.296875 
Q 12.9375 14.109375 22.625 23.890625 
Q 32.328125 33.6875 34.8125 36.53125 
Q 39.546875 41.84375 41.421875 45.53125 
Q 43.3125 49.21875 43.3125 52.78125 
Q 43.3125 58.59375 39.234375 62.25 
Q 35.15625 65.921875 28.609375 65.921875 
Q 23.96875 65.921875 18.8125 64.3125 
Q 13.671875 62.703125 7.8125 59.421875 
L 7.8125 69.390625 
Q 13.765625 71.78125 18.9375 73 
Q 24.125 74.21875 28.421875 74.21875 
Q 39.75 74.21875 46.484375 68.546875 
Q 53.21875 62.890625 53.21875 53.421875 
Q 53.21875 48.921875 51.53125 44.890625 
Q 49.859375 40.875 45.40625 35.40625 
Q 44.1875 33.984375 37.640625 27.21875 
Q 31.109375 20.453125 19.1875 8.296875 
z
" id="DejaVuSans-32"/>
     </defs>
     <g transform="translate(114.334297 275.934122)scale(0.1 -0.1)">
      <use xlink:href="#DejaVuSans-32"/>
      <use x="63.623047" xlink:href="#DejaVuSans-30"/>
     </g>
    </g>
   </g>
   <g id="xtick_3">
    <g id="line2d_4">
     <path d="M 148.51215 258.622419 
L 145.917584 260.34946 
" style="fill:none;stroke:#000000;stroke-linecap:square;stroke-width:0.8;"/>
    </g>
    <g id="text_3">
     <!-- 30 -->
     <defs>
      <path d="M 40.578125 39.3125 
Q 47.65625 37.796875 51.625 33 
Q 55.609375 28.21875 55.609375 21.1875 
Q 55.609375 10.40625 48.1875 4.484375 
Q 40.765625 -1.421875 27.09375 -1.421875 
Q 22.515625 -1.421875 17.65625 -0.515625 
Q 12.796875 0.390625 7.625 2.203125 
L 7.625 11.71875 
Q 11.71875 9.328125 16.59375 8.109375 
Q 21.484375 6.890625 26.8125 6.890625 
Q 36.078125 6.890625 40.9375 10.546875 
Q 45.796875 14.203125 45.796875 21.1875 
Q 45.796875 27.640625 41.28125 31.265625 
Q 36.765625 34.90625 28.71875 34.90625 
L 20.21875 34.90625 
L 20.21875 43.015625 
L 29.109375 43.015625 
Q 36.375 43.015625 40.234375 45.921875 
Q 44.09375 48.828125 44.09375 54.296875 
Q 44.09375 59.90625 40.109375 62.90625 
Q 36.140625 65.921875 28.71875 65.921875 
Q 24.65625 65.921875 20.015625 65.03125 
Q 15.375 64.15625 9.8125 62.3125 
L 9.8125 71.09375 
Q 15.4375 72.65625 20.34375 73.4375 
Q 25.25 74.21875 29.59375 74.21875 
Q 40.828125 74.21875 47.359375 69.109375 
Q 53.90625 64.015625 53.90625 55.328125 
Q 53.90625 49.265625 50.4375 45.09375 
Q 46.96875 40.921875 40.578125 39.3125 
z
" id="DejaVuSans-33"/>
     </defs>
     <g transform="translate(133.962189 280.803169)scale(0.1 -0.1)">
      <use xlink:href="#DejaVuSans-33"/>
      <use x="63.623047" xlink:href="#DejaVuSans-30"/>
     </g>
    </g>
   </g>
   <g id="xtick_4">
    <g id="line2d_5">
     <path d="M 168.340885 263.453869 
L 165.770134 265.199151 
" style="fill:none;stroke:#000000;stroke-linecap:square;stroke-width:0.8;"/>
    </g>
    <g id="text_4">
     <!-- 40 -->
     <defs>
      <path d="M 37.796875 64.3125 
L 12.890625 25.390625 
L 37.796875 25.390625 
z
M 35.203125 72.90625 
L 47.609375 72.90625 
L 47.609375 25.390625 
L 58.015625 25.390625 
L 58.015625 17.1875 
L 47.609375 17.1875 
L 47.609375 0 
L 37.796875 0 
L 37.796875 17.1875 
L 4.890625 17.1875 
L 4.890625 26.703125 
z
" id="DejaVuSans-34"/>
     </defs>
     <g transform="translate(153.797159 285.723585)scale(0.1 -0.1)">
      <use xlink:href="#DejaVuSans-34"/>
      <use x="63.623047" xlink:href="#DejaVuSans-30"/>
     </g>
    </g>
   </g>
   <g id="xtick_5">
    <g id="line2d_6">
     <path d="M 188.379401 268.336435 
L 185.833117 270.100247 
" style="fill:none;stroke:#000000;stroke-linecap:square;stroke-width:0.8;"/>
    </g>
    <g id="text_5">
     <!-- 50 -->
     <defs>
      <path d="M 10.796875 72.90625 
L 49.515625 72.90625 
L 49.515625 64.59375 
L 19.828125 64.59375 
L 19.828125 46.734375 
Q 21.96875 47.46875 24.109375 47.828125 
Q 26.265625 48.1875 28.421875 48.1875 
Q 40.625 48.1875 47.75 41.5 
Q 54.890625 34.8125 54.890625 23.390625 
Q 54.890625 11.625 47.5625 5.09375 
Q 40.234375 -1.421875 26.90625 -1.421875 
Q 22.3125 -1.421875 17.546875 -0.640625 
Q 12.796875 0.140625 7.71875 1.703125 
L 7.71875 11.625 
Q 12.109375 9.234375 16.796875 8.0625 
Q 21.484375 6.890625 26.703125 6.890625 
Q 35.15625 6.890625 40.078125 11.328125 
Q 45.015625 15.765625 45.015625 23.390625 
Q 45.015625 31 40.078125 35.4375 
Q 35.15625 39.890625 26.703125 39.890625 
Q 22.75 39.890625 18.8125 39.015625 
Q 14.890625 38.140625 10.796875 36.28125 
z
" id="DejaVuSans-35"/>
     </defs>
     <g transform="translate(173.842503 290.696189)scale(0.1 -0.1)">
      <use xlink:href="#DejaVuSans-35"/>
      <use x="63.623047" xlink:href="#DejaVuSans-30"/>
     </g>
    </g>
   </g>
   <g id="xtick_6">
    <g id="line2d_7">
     <path d="M 208.631047 273.270931 
L 206.109897 275.053571 
" style="fill:none;stroke:#000000;stroke-linecap:square;stroke-width:0.8;"/>
    </g>
    <g id="text_6">
     <!-- 60 -->
     <defs>
      <path d="M 33.015625 40.375 
Q 26.375 40.375 22.484375 35.828125 
Q 18.609375 31.296875 18.609375 23.390625 
Q 18.609375 15.53125 22.484375 10.953125 
Q 26.375 6.390625 33.015625 6.390625 
Q 39.65625 6.390625 43.53125 10.953125 
Q 47.40625 15.53125 47.40625 23.390625 
Q 47.40625 31.296875 43.53125 35.828125 
Q 39.65625 40.375 33.015625 40.375 
z
M 52.59375 71.296875 
L 52.59375 62.3125 
Q 48.875 64.0625 45.09375 64.984375 
Q 41.3125 65.921875 37.59375 65.921875 
Q 27.828125 65.921875 22.671875 59.328125 
Q 17.53125 52.734375 16.796875 39.40625 
Q 19.671875 43.65625 24.015625 45.921875 
Q 28.375 48.1875 33.59375 48.1875 
Q 44.578125 48.1875 50.953125 41.515625 
Q 57.328125 34.859375 57.328125 23.390625 
Q 57.328125 12.15625 50.6875 5.359375 
Q 44.046875 -1.421875 33.015625 -1.421875 
Q 20.359375 -1.421875 13.671875 8.265625 
Q 6.984375 17.96875 6.984375 36.375 
Q 6.984375 53.65625 15.1875 63.9375 
Q 23.390625 74.21875 37.203125 74.21875 
Q 40.921875 74.21875 44.703125 73.484375 
Q 48.484375 72.75 52.59375 71.296875 
z
" id="DejaVuSans-36"/>
     </defs>
     <g transform="translate(194.101586 295.721814)scale(0.1 -0.1)">
      <use xlink:href="#DejaVuSans-36"/>
      <use x="63.623047" xlink:href="#DejaVuSans-30"/>
     </g>
    </g>
   </g>
   <g id="xtick_7">
    <g id="line2d_8">
     <path d="M 229.099239 278.25819 
L 226.603909 280.059961 
" style="fill:none;stroke:#000000;stroke-linecap:square;stroke-width:0.8;"/>
    </g>
    <g id="text_7">
     <!-- 70 -->
     <defs>
      <path d="M 8.203125 72.90625 
L 55.078125 72.90625 
L 55.078125 68.703125 
L 28.609375 0 
L 18.3125 0 
L 43.21875 64.59375 
L 8.203125 64.59375 
z
" id="DejaVuSans-37"/>
     </defs>
     <g transform="translate(214.577844 300.801313)scale(0.1 -0.1)">
      <use xlink:href="#DejaVuSans-37"/>
      <use x="63.623047" xlink:href="#DejaVuSans-30"/>
     </g>
    </g>
   </g>
   <g id="xtick_8">
    <g id="line2d_9">
     <path d="M 249.787471 283.299065 
L 247.318663 285.120276 
" style="fill:none;stroke:#000000;stroke-linecap:square;stroke-width:0.8;"/>
    </g>
    <g id="text_8">
     <!-- 80 -->
     <defs>
      <path d="M 31.78125 34.625 
Q 24.75 34.625 20.71875 30.859375 
Q 16.703125 27.09375 16.703125 20.515625 
Q 16.703125 13.921875 20.71875 10.15625 
Q 24.75 6.390625 31.78125 6.390625 
Q 38.8125 6.390625 42.859375 10.171875 
Q 46.921875 13.96875 46.921875 20.515625 
Q 46.921875 27.09375 42.890625 30.859375 
Q 38.875 34.625 31.78125 34.625 
z
M 21.921875 38.8125 
Q 15.578125 40.375 12.03125 44.71875 
Q 8.5 49.078125 8.5 55.328125 
Q 8.5 64.0625 14.71875 69.140625 
Q 20.953125 74.21875 31.78125 74.21875 
Q 42.671875 74.21875 48.875 69.140625 
Q 55.078125 64.0625 55.078125 55.328125 
Q 55.078125 49.078125 51.53125 44.71875 
Q 48 40.375 41.703125 38.8125 
Q 48.828125 37.15625 52.796875 32.3125 
Q 56.78125 27.484375 56.78125 20.515625 
Q 56.78125 9.90625 50.3125 4.234375 
Q 43.84375 -1.421875 31.78125 -1.421875 
Q 19.734375 -1.421875 13.25 4.234375 
Q 6.78125 9.90625 6.78125 20.515625 
Q 6.78125 27.484375 10.78125 32.3125 
Q 14.796875 37.15625 21.921875 38.8125 
z
M 18.3125 54.390625 
Q 18.3125 48.734375 21.84375 45.5625 
Q 25.390625 42.390625 31.78125 42.390625 
Q 38.140625 42.390625 41.71875 45.5625 
Q 45.3125 48.734375 45.3125 54.390625 
Q 45.3125 60.0625 41.71875 63.234375 
Q 38.140625 66.40625 31.78125 66.40625 
Q 25.390625 66.40625 21.84375 63.234375 
Q 18.3125 60.0625 18.3125 54.390625 
z
" id="DejaVuSans-38"/>
     </defs>
     <g transform="translate(235.274788 305.935557)scale(0.1 -0.1)">
      <use xlink:href="#DejaVuSans-38"/>
      <use x="63.623047" xlink:href="#DejaVuSans-30"/>
     </g>
    </g>
   </g>
   <g id="xtick_9">
    <g id="line2d_10">
     <path d="M 270.699309 288.394422 
L 268.257745 290.235391 
" style="fill:none;stroke:#000000;stroke-linecap:square;stroke-width:0.8;"/>
    </g>
    <g id="text_9">
     <!-- 90 -->
     <defs>
      <path d="M 10.984375 1.515625 
L 10.984375 10.5 
Q 14.703125 8.734375 18.5 7.8125 
Q 22.3125 6.890625 25.984375 6.890625 
Q 35.75 6.890625 40.890625 13.453125 
Q 46.046875 20.015625 46.78125 33.40625 
Q 43.953125 29.203125 39.59375 26.953125 
Q 35.25 24.703125 29.984375 24.703125 
Q 19.046875 24.703125 12.671875 31.3125 
Q 6.296875 37.9375 6.296875 49.421875 
Q 6.296875 60.640625 12.9375 67.421875 
Q 19.578125 74.21875 30.609375 74.21875 
Q 43.265625 74.21875 49.921875 64.515625 
Q 56.59375 54.828125 56.59375 36.375 
Q 56.59375 19.140625 48.40625 8.859375 
Q 40.234375 -1.421875 26.421875 -1.421875 
Q 22.703125 -1.421875 18.890625 -0.6875 
Q 15.09375 0.046875 10.984375 1.515625 
z
M 30.609375 32.421875 
Q 37.25 32.421875 41.125 36.953125 
Q 45.015625 41.5 45.015625 49.421875 
Q 45.015625 57.28125 41.125 61.84375 
Q 37.25 66.40625 30.609375 66.40625 
Q 23.96875 66.40625 20.09375 61.84375 
Q 16.21875 57.28125 16.21875 49.421875 
Q 16.21875 41.5 20.09375 36.953125 
Q 23.96875 32.421875 30.609375 32.421875 
z
" id="DejaVuSans-39"/>
     </defs>
     <g transform="translate(256.196005 311.125437)scale(0.1 -0.1)">
      <use xlink:href="#DejaVuSans-39"/>
      <use x="63.623047" xlink:href="#DejaVuSans-30"/>
     </g>
    </g>
   </g>
  </g>
  <g id="axis3d_2">
   <g id="line2d_11">
    <path d="M 372.72135 220.013954 
L 279.143747 291.264825 
" style="fill:none;stroke:#000000;stroke-linecap:square;stroke-width:0.8;"/>
   </g>
   <g id="Line3DCollection_2">
    <path d="M 107.909225 111.85479 
L 114.727646 242.535899 
L 288.130371 284.422325 
" style="fill:none;stroke:#b0b0b0;stroke-width:0.8;"/>
    <path d="M 125.84132 102.113232 
L 131.670227 231.720747 
L 303.675532 272.586092 
" style="fill:none;stroke:#b0b0b0;stroke-width:0.8;"/>
    <path d="M 143.326159 92.614644 
L 148.211372 221.161849 
L 318.835689 261.043006 
" style="fill:none;stroke:#b0b0b0;stroke-width:0.8;"/>
    <path d="M 160.380271 83.350048 
L 164.365181 210.850203 
L 333.624969 249.782308 
" style="fill:none;stroke:#b0b0b0;stroke-width:0.8;"/>
    <path d="M 177.019377 74.310902 
L 180.145101 200.777225 
L 348.056817 238.793762 
" style="fill:none;stroke:#b0b0b0;stroke-width:0.8;"/>
    <path d="M 193.258444 65.489076 
L 195.563965 190.934725 
L 362.144037 228.06762 
" style="fill:none;stroke:#b0b0b0;stroke-width:0.8;"/>
   </g>
   <g id="xtick_10">
    <g id="line2d_12">
     <path d="M 286.679276 284.071805 
L 291.035798 285.124148 
" style="fill:none;stroke:#000000;stroke-linecap:square;stroke-width:0.8;"/>
    </g>
    <g id="text_10">
     <!-- 1000 -->
     <g transform="translate(288.077022 304.154276)scale(0.1 -0.1)">
      <use xlink:href="#DejaVuSans-31"/>
      <use x="63.623047" xlink:href="#DejaVuSans-30"/>
      <use x="127.246094" xlink:href="#DejaVuSans-30"/>
      <use x="190.869141" xlink:href="#DejaVuSans-30"/>
     </g>
    </g>
   </g>
   <g id="xtick_11">
    <g id="line2d_13">
     <path d="M 302.236925 272.244305 
L 306.555914 273.270419 
" style="fill:none;stroke:#000000;stroke-linecap:square;stroke-width:0.8;"/>
    </g>
    <g id="text_11">
     <!-- 2000 -->
     <g transform="translate(303.455568 292.171927)scale(0.1 -0.1)">
      <use xlink:href="#DejaVuSans-32"/>
      <use x="63.623047" xlink:href="#DejaVuSans-30"/>
      <use x="127.246094" xlink:href="#DejaVuSans-30"/>
      <use x="190.869141" xlink:href="#DejaVuSans-30"/>
     </g>
    </g>
   </g>
   <g id="xtick_12">
    <g id="line2d_14">
     <path d="M 317.4094 260.70963 
L 321.691368 261.710482 
" style="fill:none;stroke:#000000;stroke-linecap:square;stroke-width:0.8;"/>
    </g>
    <g id="text_12">
     <!-- 3000 -->
     <g transform="translate(318.453425 280.486195)scale(0.1 -0.1)">
      <use xlink:href="#DejaVuSans-33"/>
      <use x="63.623047" xlink:href="#DejaVuSans-30"/>
      <use x="127.246094" xlink:href="#DejaVuSans-30"/>
      <use x="190.869141" xlink:href="#DejaVuSans-30"/>
     </g>
    </g>
   </g>
   <g id="xtick_13">
    <g id="line2d_15">
     <path d="M 332.21083 249.457036 
L 336.456284 250.43355 
" style="fill:none;stroke:#000000;stroke-linecap:square;stroke-width:0.8;"/>
    </g>
    <g id="text_13">
     <!-- 4000 -->
     <g transform="translate(333.084556 269.086202)scale(0.1 -0.1)">
      <use xlink:href="#DejaVuSans-34"/>
      <use x="63.623047" xlink:href="#DejaVuSans-30"/>
      <use x="127.246094" xlink:href="#DejaVuSans-30"/>
      <use x="190.869141" xlink:href="#DejaVuSans-30"/>
     </g>
    </g>
   </g>
   <g id="xtick_14">
    <g id="line2d_16">
     <path d="M 346.654661 238.476303 
L 350.864105 239.429354 
" style="fill:none;stroke:#000000;stroke-linecap:square;stroke-width:0.8;"/>
    </g>
    <g id="text_14">
     <!-- 5000 -->
     <g transform="translate(347.362248 257.961595)scale(0.1 -0.1)">
      <use xlink:href="#DejaVuSans-35"/>
      <use x="63.623047" xlink:href="#DejaVuSans-30"/>
      <use x="127.246094" xlink:href="#DejaVuSans-30"/>
      <use x="190.869141" xlink:href="#DejaVuSans-30"/>
     </g>
    </g>
   </g>
   <g id="xtick_15">
    <g id="line2d_17">
     <path d="M 360.753698 227.757695 
L 364.927631 228.688119 
" style="fill:none;stroke:#000000;stroke-linecap:square;stroke-width:0.8;"/>
    </g>
    <g id="text_15">
     <!-- 6000 -->
     <g transform="translate(361.299156 247.102512)scale(0.1 -0.1)">
      <use xlink:href="#DejaVuSans-36"/>
      <use x="63.623047" xlink:href="#DejaVuSans-30"/>
      <use x="127.246094" xlink:href="#DejaVuSans-30"/>
      <use x="190.869141" xlink:href="#DejaVuSans-30"/>
     </g>
    </g>
   </g>
  </g>
  <g id="axis3d_3">
   <g id="line2d_18">
    <path d="M 372.72135 220.013954 
L 379.648599 91.582742 
" style="fill:none;stroke:#000000;stroke-linecap:square;stroke-width:0.8;"/>
   </g>
   <g id="Line3DCollection_3">
    <path d="M 373.805014 199.922809 
L 206.884695 163.99909 
L 103.785751 228.273221 
" style="fill:none;stroke:#b0b0b0;stroke-width:0.8;"/>
    <path d="M 374.877384 180.041068 
L 206.620961 144.676949 
L 102.641164 207.966709 
" style="fill:none;stroke:#b0b0b0;stroke-width:0.8;"/>
    <path d="M 375.967212 159.835667 
L 206.353116 125.053611 
L 101.477319 187.318534 
" style="fill:none;stroke:#b0b0b0;stroke-width:0.8;"/>
    <path d="M 377.074926 139.298638 
L 206.081064 105.121976 
L 100.293725 166.32 
" style="fill:none;stroke:#b0b0b0;stroke-width:0.8;"/>
    <path d="M 378.200972 118.421748 
L 205.804703 84.874722 
L 99.089877 144.962113 
" style="fill:none;stroke:#b0b0b0;stroke-width:0.8;"/>
    <path d="M 379.345807 97.196491 
L 205.523931 64.304293 
L 97.865249 123.23557 
" style="fill:none;stroke:#b0b0b0;stroke-width:0.8;"/>
   </g>
   <g id="xtick_16">
    <g id="line2d_19">
     <path d="M 372.411889 199.622988 
L 376.594184 200.523079 
" style="fill:none;stroke:#000000;stroke-linecap:square;stroke-width:0.8;"/>
    </g>
    <g id="text_16">
     <!-- 0.0 -->
     <defs>
      <path d="M 10.6875 12.40625 
L 21 12.40625 
L 21 0 
L 10.6875 0 
z
" id="DejaVuSans-2e"/>
     </defs>
     <g transform="translate(384.333293 205.580973)scale(0.1 -0.1)">
      <use xlink:href="#DejaVuSans-30"/>
      <use x="63.623047" xlink:href="#DejaVuSans-2e"/>
      <use x="95.410156" xlink:href="#DejaVuSans-30"/>
     </g>
    </g>
   </g>
   <g id="xtick_17">
    <g id="line2d_20">
     <path d="M 373.472638 179.745819 
L 377.689845 180.632191 
" style="fill:none;stroke:#000000;stroke-linecap:square;stroke-width:0.8;"/>
    </g>
    <g id="text_17">
     <!-- 0.1 -->
     <g transform="translate(385.552088 185.728847)scale(0.1 -0.1)">
      <use xlink:href="#DejaVuSans-30"/>
      <use x="63.623047" xlink:href="#DejaVuSans-2e"/>
      <use x="95.410156" xlink:href="#DejaVuSans-31"/>
     </g>
    </g>
   </g>
   <g id="xtick_18">
    <g id="line2d_21">
     <path d="M 374.550648 159.545179 
L 378.803354 160.417263 
" style="fill:none;stroke:#000000;stroke-linecap:square;stroke-width:0.8;"/>
    </g>
    <g id="text_18">
     <!-- 0.2 -->
     <g transform="translate(386.790678 165.554285)scale(0.1 -0.1)">
      <use xlink:href="#DejaVuSans-30"/>
      <use x="63.623047" xlink:href="#DejaVuSans-2e"/>
      <use x="95.410156" xlink:href="#DejaVuSans-32"/>
     </g>
    </g>
   </g>
   <g id="xtick_19">
    <g id="line2d_22">
     <path d="M 375.646346 139.013107 
L 379.935152 139.870313 
" style="fill:none;stroke:#000000;stroke-linecap:square;stroke-width:0.8;"/>
    </g>
    <g id="text_19">
     <!-- 0.3 -->
     <g transform="translate(388.04955 145.049366)scale(0.1 -0.1)">
      <use xlink:href="#DejaVuSans-30"/>
      <use x="63.623047" xlink:href="#DejaVuSans-2e"/>
      <use x="95.410156" xlink:href="#DejaVuSans-33"/>
     </g>
    </g>
   </g>
   <g id="xtick_20">
    <g id="line2d_23">
     <path d="M 376.76017 118.141379 
L 381.085694 118.983094 
" style="fill:none;stroke:#000000;stroke-linecap:square;stroke-width:0.8;"/>
    </g>
    <g id="text_20">
     <!-- 0.4 -->
     <g transform="translate(389.329206 124.205909)scale(0.1 -0.1)">
      <use xlink:href="#DejaVuSans-30"/>
      <use x="63.623047" xlink:href="#DejaVuSans-2e"/>
      <use x="95.410156" xlink:href="#DejaVuSans-34"/>
     </g>
    </g>
   </g>
   <g id="xtick_21">
    <g id="line2d_24">
     <path d="M 377.892573 96.921497 
L 382.255449 97.747081 
" style="fill:none;stroke:#000000;stroke-linecap:square;stroke-width:0.8;"/>
    </g>
    <g id="text_21">
     <!-- 0.5 -->
     <g transform="translate(390.630165 103.015461)scale(0.1 -0.1)">
      <use xlink:href="#DejaVuSans-30"/>
      <use x="63.623047" xlink:href="#DejaVuSans-2e"/>
      <use x="95.410156" xlink:href="#DejaVuSans-35"/>
     </g>
    </g>
   </g>
  </g>
  <g id="axes_1">
   <g id="Path3DCollection_1">
    <defs>
     <path d="M 0 2.236068 
C 0.593012 2.236068 1.161816 2.000462 1.581139 1.581139 
C 2.000462 1.161816 2.236068 0.593012 2.236068 0 
C 2.236068 -0.593012 2.000462 -1.161816 1.581139 -1.581139 
C 1.161816 -2.000462 0.593012 -2.236068 0 -2.236068 
C -0.593012 -2.236068 -1.161816 -2.000462 -1.581139 -1.581139 
C -2.000462 -1.161816 -2.236068 -0.593012 -2.236068 0 
C -2.236068 0.593012 -2.000462 1.161816 -1.581139 1.581139 
C -1.161816 2.000462 -0.593012 2.236068 0 2.236068 
z
" id="C0_0_707811e34a"/>
    </defs>
    <g clip-path="url(#p1154fc359e)">
     <use style="fill:#1f77b4;fill-opacity:0.3;stroke:#1f77b4;stroke-opacity:0.3;" x="207.009388" xlink:href="#C0_0_707811e34a" y="74.27014"/>
    </g>
    <g clip-path="url(#p1154fc359e)">
     <use style="fill:#1f77b4;fill-opacity:0.598956;stroke:#1f77b4;stroke-opacity:0.598956;" x="181.862494" xlink:href="#C0_0_707811e34a" y="104.984743"/>
    </g>
    <g clip-path="url(#p1154fc359e)">
     <use style="fill:#1f77b4;fill-opacity:0.837793;stroke:#1f77b4;stroke-opacity:0.837793;" x="166.581614" xlink:href="#C0_0_707811e34a" y="117.109153"/>
    </g>
    <g clip-path="url(#p1154fc359e)">
     <use style="fill:#1f77b4;stroke:#1f77b4;" x="152.19724" xlink:href="#C0_0_707811e34a" y="135.684948"/>
    </g>
    <g clip-path="url(#p1154fc359e)">
     <use style="fill:#1f77b4;fill-opacity:0.703005;stroke:#1f77b4;stroke-opacity:0.703005;" x="138.886167" xlink:href="#C0_0_707811e34a" y="204.018105"/>
    </g>
    <g clip-path="url(#p1154fc359e)">
     <use style="fill:#1f77b4;fill-opacity:0.725004;stroke:#1f77b4;stroke-opacity:0.725004;" x="125.120961" xlink:href="#C0_0_707811e34a" y="237.033969"/>
    </g>
   </g>
   <g id="Path3DCollection_2">
    <defs>
     <path d="M 0 2.236068 
C 0.593012 2.236068 1.161816 2.000462 1.581139 1.581139 
C 2.000462 1.161816 2.236068 0.593012 2.236068 0 
C 2.236068 -0.593012 2.000462 -1.161816 1.581139 -1.581139 
C 1.161816 -2.000462 0.593012 -2.236068 0 -2.236068 
C -0.593012 -2.236068 -1.161816 -2.000462 -1.581139 -1.581139 
C -2.000462 -1.161816 -2.236068 -0.593012 -2.236068 0 
C -2.236068 0.593012 -2.000462 1.161816 -1.581139 1.581139 
C -1.161816 2.000462 -0.593012 2.236068 0 2.236068 
z
" id="C1_0_e5baa60213"/>
    </defs>
    <g clip-path="url(#p1154fc359e)">
     <use style="fill:#ff7f0e;fill-opacity:0.3;stroke:#ff7f0e;stroke-opacity:0.3;" x="225.474987" xlink:href="#C1_0_e5baa60213" y="82.593883"/>
    </g>
    <g clip-path="url(#p1154fc359e)">
     <use style="fill:#ff7f0e;fill-opacity:0.583138;stroke:#ff7f0e;stroke-opacity:0.583138;" x="197.508471" xlink:href="#C1_0_e5baa60213" y="113.572256"/>
    </g>
    <g clip-path="url(#p1154fc359e)">
     <use style="fill:#ff7f0e;fill-opacity:0.774807;stroke:#ff7f0e;stroke-opacity:0.774807;" x="181.368792" xlink:href="#C1_0_e5baa60213" y="127.335426"/>
    </g>
    <g clip-path="url(#p1154fc359e)">
     <use style="fill:#ff7f0e;fill-opacity:0.902647;stroke:#ff7f0e;stroke-opacity:0.902647;" x="167.476202" xlink:href="#C1_0_e5baa60213" y="144.588922"/>
    </g>
    <g clip-path="url(#p1154fc359e)">
     <use style="fill:#ff7f0e;fill-opacity:0.884062;stroke:#ff7f0e;stroke-opacity:0.884062;" x="151.786914" xlink:href="#C1_0_e5baa60213" y="187.792967"/>
    </g>
    <g clip-path="url(#p1154fc359e)">
     <use style="fill:#ff7f0e;stroke:#ff7f0e;" x="138.126962" xlink:href="#C1_0_e5baa60213" y="206.178315"/>
    </g>
   </g>
   <g id="Path3DCollection_3">
    <defs>
     <path d="M 0 2.236068 
C 0.593012 2.236068 1.161816 2.000462 1.581139 1.581139 
C 2.000462 1.161816 2.236068 0.593012 2.236068 0 
C 2.236068 -0.593012 2.000462 -1.161816 1.581139 -1.581139 
C 1.161816 -2.000462 0.593012 -2.236068 0 -2.236068 
C -0.593012 -2.236068 -1.161816 -2.000462 -1.581139 -1.581139 
C -2.000462 -1.161816 -2.236068 -0.593012 -2.236068 0 
C -2.236068 0.593012 -2.000462 1.161816 -1.581139 1.581139 
C -1.161816 2.000462 -0.593012 2.236068 0 2.236068 
z
" id="C2_0_67e7711d1a"/>
    </defs>
    <g clip-path="url(#p1154fc359e)">
     <use style="fill:#2ca02c;fill-opacity:0.3;stroke:#2ca02c;stroke-opacity:0.3;" x="240.593036" xlink:href="#C2_0_67e7711d1a" y="99.309098"/>
    </g>
    <g clip-path="url(#p1154fc359e)">
     <use style="fill:#2ca02c;fill-opacity:0.535258;stroke:#2ca02c;stroke-opacity:0.535258;" x="215.438502" xlink:href="#C2_0_67e7711d1a" y="123.19693"/>
    </g>
    <g clip-path="url(#p1154fc359e)">
     <use style="fill:#2ca02c;fill-opacity:0.710783;stroke:#2ca02c;stroke-opacity:0.710783;" x="198.283536" xlink:href="#C2_0_67e7711d1a" y="136.856592"/>
    </g>
    <g clip-path="url(#p1154fc359e)">
     <use style="fill:#2ca02c;fill-opacity:0.824588;stroke:#2ca02c;stroke-opacity:0.824588;" x="183.918956" xlink:href="#C2_0_67e7711d1a" y="154.08128"/>
    </g>
    <g clip-path="url(#p1154fc359e)">
     <use style="fill:#2ca02c;fill-opacity:0.929487;stroke:#2ca02c;stroke-opacity:0.929487;" x="168.595509" xlink:href="#C2_0_67e7711d1a" y="175.334918"/>
    </g>
    <g clip-path="url(#p1154fc359e)">
     <use style="fill:#2ca02c;stroke:#2ca02c;" x="155.418018" xlink:href="#C2_0_67e7711d1a" y="197.048279"/>
    </g>
   </g>
   <g id="Path3DCollection_4">
    <defs>
     <path d="M 0 2.236068 
C 0.593012 2.236068 1.161816 2.000462 1.581139 1.581139 
C 2.000462 1.161816 2.236068 0.593012 2.236068 0 
C 2.236068 -0.593012 2.000462 -1.161816 1.581139 -1.581139 
C 1.161816 -2.000462 0.593012 -2.236068 0 -2.236068 
C -0.593012 -2.236068 -1.161816 -2.000462 -1.581139 -1.581139 
C -2.000462 -1.161816 -2.236068 -0.593012 -2.236068 0 
C -2.236068 0.593012 -2.000462 1.161816 -1.581139 1.581139 
C -1.161816 2.000462 -0.593012 2.236068 0 2.236068 
z
" id="C3_0_5952f4b3b6"/>
    </defs>
    <g clip-path="url(#p1154fc359e)">
     <use style="fill:#d62728;fill-opacity:0.3;stroke:#d62728;stroke-opacity:0.3;" x="255.525523" xlink:href="#C3_0_5952f4b3b6" y="112.375503"/>
    </g>
    <g clip-path="url(#p1154fc359e)">
     <use style="fill:#d62728;fill-opacity:0.513688;stroke:#d62728;stroke-opacity:0.513688;" x="232.213529" xlink:href="#C3_0_5952f4b3b6" y="135.0347"/>
    </g>
    <g clip-path="url(#p1154fc359e)">
     <use style="fill:#d62728;fill-opacity:0.670949;stroke:#d62728;stroke-opacity:0.670949;" x="214.917722" xlink:href="#C3_0_5952f4b3b6" y="152.070929"/>
    </g>
    <g clip-path="url(#p1154fc359e)">
     <use style="fill:#d62728;fill-opacity:0.789239;stroke:#d62728;stroke-opacity:0.789239;" x="199.504847" xlink:href="#C3_0_5952f4b3b6" y="171.088705"/>
    </g>
    <g clip-path="url(#p1154fc359e)">
     <use style="fill:#d62728;fill-opacity:0.886148;stroke:#d62728;stroke-opacity:0.886148;" x="186.069839" xlink:href="#C3_0_5952f4b3b6" y="188.754634"/>
    </g>
    <g clip-path="url(#p1154fc359e)">
     <use style="fill:#d62728;stroke:#d62728;" x="169.700066" xlink:href="#C3_0_5952f4b3b6" y="211.021679"/>
    </g>
   </g>
   <g id="Path3DCollection_5">
    <defs>
     <path d="M 0 2.236068 
C 0.593012 2.236068 1.161816 2.000462 1.581139 1.581139 
C 2.000462 1.161816 2.236068 0.593012 2.236068 0 
C 2.236068 -0.593012 2.000462 -1.161816 1.581139 -1.581139 
C 1.161816 -2.000462 0.593012 -2.236068 0 -2.236068 
C -0.593012 -2.236068 -1.161816 -2.000462 -1.581139 -1.581139 
C -2.000462 -1.161816 -2.236068 -0.593012 -2.236068 0 
C -2.236068 0.593012 -2.000462 1.161816 -1.581139 1.581139 
C -1.161816 2.000462 -0.593012 2.236068 0 2.236068 
z
" id="C4_0_ed7d38b75b"/>
    </defs>
    <g clip-path="url(#p1154fc359e)">
     <use style="fill:#9467bd;fill-opacity:0.3;stroke:#9467bd;stroke-opacity:0.3;" x="270.813907" xlink:href="#C4_0_ed7d38b75b" y="122.76406"/>
    </g>
    <g clip-path="url(#p1154fc359e)">
     <use style="fill:#9467bd;fill-opacity:0.508634;stroke:#9467bd;stroke-opacity:0.508634;" x="247.29016" xlink:href="#C4_0_ed7d38b75b" y="146.775824"/>
    </g>
    <g clip-path="url(#p1154fc359e)">
     <use style="fill:#9467bd;fill-opacity:0.643246;stroke:#9467bd;stroke-opacity:0.643246;" x="231.660356" xlink:href="#C4_0_ed7d38b75b" y="163.435343"/>
    </g>
    <g clip-path="url(#p1154fc359e)">
     <use style="fill:#9467bd;fill-opacity:0.761681;stroke:#9467bd;stroke-opacity:0.761681;" x="217.797413" xlink:href="#C4_0_ed7d38b75b" y="178.380535"/>
    </g>
    <g clip-path="url(#p1154fc359e)">
     <use style="fill:#9467bd;stroke:#9467bd;" x="187.961857" xlink:href="#C4_0_ed7d38b75b" y="213.461724"/>
    </g>
    <g clip-path="url(#p1154fc359e)">
     <use style="fill:#9467bd;fill-opacity:0.885949;stroke:#9467bd;stroke-opacity:0.885949;" x="202.627419" xlink:href="#C4_0_ed7d38b75b" y="195.673347"/>
    </g>
   </g>
   <g id="Path3DCollection_6">
    <defs>
     <path d="M 0 2.236068 
C 0.593012 2.236068 1.161816 2.000462 1.581139 1.581139 
C 2.000462 1.161816 2.236068 0.593012 2.236068 0 
C 2.236068 -0.593012 2.000462 -1.161816 1.581139 -1.581139 
C 1.161816 -2.000462 0.593012 -2.236068 0 -2.236068 
C -0.593012 -2.236068 -1.161816 -2.000462 -1.581139 -1.581139 
C -2.000462 -1.161816 -2.236068 -0.593012 -2.236068 0 
C -2.236068 0.593012 -2.000462 1.161816 -1.581139 1.581139 
C -1.161816 2.000462 -0.593012 2.236068 0 2.236068 
z
" id="C5_0_60d1121e6b"/>
    </defs>
    <g clip-path="url(#p1154fc359e)">
     <use style="fill:#8c564b;fill-opacity:0.3;stroke:#8c564b;stroke-opacity:0.3;" x="289.452976" xlink:href="#C5_0_60d1121e6b" y="133.821764"/>
    </g>
    <g clip-path="url(#p1154fc359e)">
     <use style="fill:#8c564b;fill-opacity:0.509063;stroke:#8c564b;stroke-opacity:0.509063;" x="265.835937" xlink:href="#C5_0_60d1121e6b" y="157.122082"/>
    </g>
    <g clip-path="url(#p1154fc359e)">
     <use style="fill:#8c564b;fill-opacity:0.637598;stroke:#8c564b;stroke-opacity:0.637598;" x="250.957499" xlink:href="#C5_0_60d1121e6b" y="172.372415"/>
    </g>
    <g clip-path="url(#p1154fc359e)">
     <use style="fill:#8c564b;fill-opacity:0.759716;stroke:#8c564b;stroke-opacity:0.759716;" x="236.508433" xlink:href="#C5_0_60d1121e6b" y="187.67056"/>
    </g>
    <g clip-path="url(#p1154fc359e)">
     <use style="fill:#8c564b;fill-opacity:0.9039;stroke:#8c564b;stroke-opacity:0.9039;" x="219.44282" xlink:href="#C5_0_60d1121e6b" y="205.747533"/>
    </g>
    <g clip-path="url(#p1154fc359e)">
     <use style="fill:#8c564b;stroke:#8c564b;" x="207.213531" xlink:href="#C5_0_60d1121e6b" y="220.002782"/>
    </g>
   </g>
   <g id="Path3DCollection_7">
    <defs>
     <path d="M 0 2.236068 
C 0.593012 2.236068 1.161816 2.000462 1.581139 1.581139 
C 2.000462 1.161816 2.236068 0.593012 2.236068 0 
C 2.236068 -0.593012 2.000462 -1.161816 1.581139 -1.581139 
C 1.161816 -2.000462 0.593012 -2.236068 0 -2.236068 
C -0.593012 -2.236068 -1.161816 -2.000462 -1.581139 -1.581139 
C -2.000462 -1.161816 -2.236068 -0.593012 -2.236068 0 
C -2.236068 0.593012 -2.000462 1.161816 -1.581139 1.581139 
C -1.161816 2.000462 -0.593012 2.236068 0 2.236068 
z
" id="C6_0_7a4b11e396"/>
    </defs>
    <g clip-path="url(#p1154fc359e)">
     <use style="fill:#e377c2;fill-opacity:0.3;stroke:#e377c2;stroke-opacity:0.3;" x="305.741028" xlink:href="#C6_0_7a4b11e396" y="140.958487"/>
    </g>
    <g clip-path="url(#p1154fc359e)">
     <use style="fill:#e377c2;fill-opacity:0.510281;stroke:#e377c2;stroke-opacity:0.510281;" x="281.752166" xlink:href="#C6_0_7a4b11e396" y="164.127941"/>
    </g>
    <g clip-path="url(#p1154fc359e)">
     <use style="fill:#e377c2;fill-opacity:0.634673;stroke:#e377c2;stroke-opacity:0.634673;" x="266.899154" xlink:href="#C6_0_7a4b11e396" y="179.543639"/>
    </g>
    <g clip-path="url(#p1154fc359e)">
     <use style="fill:#e377c2;fill-opacity:0.755164;stroke:#e377c2;stroke-opacity:0.755164;" x="252.730617" xlink:href="#C6_0_7a4b11e396" y="193.911365"/>
    </g>
    <g clip-path="url(#p1154fc359e)">
     <use style="fill:#e377c2;fill-opacity:0.904532;stroke:#e377c2;stroke-opacity:0.904532;" x="235.593409" xlink:href="#C6_0_7a4b11e396" y="210.620312"/>
    </g>
    <g clip-path="url(#p1154fc359e)">
     <use style="fill:#e377c2;stroke:#e377c2;" x="223.513144" xlink:href="#C6_0_7a4b11e396" y="224.209232"/>
    </g>
   </g>
   <g id="Path3DCollection_8">
    <defs>
     <path d="M 0 2.236068 
C 0.593012 2.236068 1.161816 2.000462 1.581139 1.581139 
C 2.000462 1.161816 2.236068 0.593012 2.236068 0 
C 2.236068 -0.593012 2.000462 -1.161816 1.581139 -1.581139 
C 1.161816 -2.000462 0.593012 -2.236068 0 -2.236068 
C -0.593012 -2.236068 -1.161816 -2.000462 -1.581139 -1.581139 
C -2.000462 -1.161816 -2.236068 -0.593012 -2.236068 0 
C -2.236068 0.593012 -2.000462 1.161816 -1.581139 1.581139 
C -1.161816 2.000462 -0.593012 2.236068 0 2.236068 
z
" id="C7_0_cd5e41bae6"/>
    </defs>
    <g clip-path="url(#p1154fc359e)">
     <use style="fill:#7f7f7f;fill-opacity:0.3;stroke:#7f7f7f;stroke-opacity:0.3;" x="323.186473" xlink:href="#C7_0_cd5e41bae6" y="148.761407"/>
    </g>
    <g clip-path="url(#p1154fc359e)">
     <use style="fill:#7f7f7f;fill-opacity:0.501412;stroke:#7f7f7f;stroke-opacity:0.501412;" x="299.495995" xlink:href="#C7_0_cd5e41bae6" y="172.073171"/>
    </g>
    <g clip-path="url(#p1154fc359e)">
     <use style="fill:#7f7f7f;fill-opacity:0.627221;stroke:#7f7f7f;stroke-opacity:0.627221;" x="284.873759" xlink:href="#C7_0_cd5e41bae6" y="186.180942"/>
    </g>
    <g clip-path="url(#p1154fc359e)">
     <use style="fill:#7f7f7f;fill-opacity:0.7453;stroke:#7f7f7f;stroke-opacity:0.7453;" x="270.735492" xlink:href="#C7_0_cd5e41bae6" y="200.49171"/>
    </g>
    <g clip-path="url(#p1154fc359e)">
     <use style="fill:#7f7f7f;fill-opacity:0.89291;stroke:#7f7f7f;stroke-opacity:0.89291;" x="254.0984" xlink:href="#C7_0_cd5e41bae6" y="215.704745"/>
    </g>
    <g clip-path="url(#p1154fc359e)">
     <use style="fill:#7f7f7f;stroke:#7f7f7f;" x="241.458813" xlink:href="#C7_0_cd5e41bae6" y="228.211544"/>
    </g>
   </g>
   <g id="Path3DCollection_9">
    <defs>
     <path d="M 0 2.236068 
C 0.593012 2.236068 1.161816 2.000462 1.581139 1.581139 
C 2.000462 1.161816 2.236068 0.593012 2.236068 0 
C 2.236068 -0.593012 2.000462 -1.161816 1.581139 -1.581139 
C 1.161816 -2.000462 0.593012 -2.236068 0 -2.236068 
C -0.593012 -2.236068 -1.161816 -2.000462 -1.581139 -1.581139 
C -2.000462 -1.161816 -2.236068 -0.593012 -2.236068 0 
C -2.236068 0.593012 -2.000462 1.161816 -1.581139 1.581139 
C -1.161816 2.000462 -0.593012 2.236068 0 2.236068 
z
" id="C8_0_ac3d491812"/>
    </defs>
    <g clip-path="url(#p1154fc359e)">
     <use style="fill:#bcbd22;fill-opacity:0.3;stroke:#bcbd22;stroke-opacity:0.3;" x="339.824153" xlink:href="#C8_0_ac3d491812" y="155.667615"/>
    </g>
    <g clip-path="url(#p1154fc359e)">
     <use style="fill:#bcbd22;fill-opacity:0.50257;stroke:#bcbd22;stroke-opacity:0.50257;" x="316.526902" xlink:href="#C8_0_ac3d491812" y="178.136046"/>
    </g>
    <g clip-path="url(#p1154fc359e)">
     <use style="fill:#bcbd22;fill-opacity:0.631098;stroke:#bcbd22;stroke-opacity:0.631098;" x="301.780228" xlink:href="#C8_0_ac3d491812" y="192.301226"/>
    </g>
    <g clip-path="url(#p1154fc359e)">
     <use style="fill:#bcbd22;fill-opacity:0.750438;stroke:#bcbd22;stroke-opacity:0.750438;" x="288.023844" xlink:href="#C8_0_ac3d491812" y="205.618703"/>
    </g>
    <g clip-path="url(#p1154fc359e)">
     <use style="fill:#bcbd22;fill-opacity:0.88123;stroke:#bcbd22;stroke-opacity:0.88123;" x="272.848106" xlink:href="#C8_0_ac3d491812" y="220.470418"/>
    </g>
    <g clip-path="url(#p1154fc359e)">
     <use style="fill:#bcbd22;stroke:#bcbd22;" x="259.07067" xlink:href="#C8_0_ac3d491812" y="233.948348"/>
    </g>
   </g>
   <g id="Path3DCollection_10">
    <defs>
     <path d="M 0 2.236068 
C 0.593012 2.236068 1.161816 2.000462 1.581139 1.581139 
C 2.000462 1.161816 2.236068 0.593012 2.236068 0 
C 2.236068 -0.593012 2.000462 -1.161816 1.581139 -1.581139 
C 1.161816 -2.000462 0.593012 -2.236068 0 -2.236068 
C -0.593012 -2.236068 -1.161816 -2.000462 -1.581139 -1.581139 
C -2.000462 -1.161816 -2.236068 -0.593012 -2.236068 0 
C -2.236068 0.593012 -2.000462 1.161816 -1.581139 1.581139 
C -1.161816 2.000462 -0.593012 2.236068 0 2.236068 
z
" id="C9_0_08134fcfee"/>
    </defs>
    <g clip-path="url(#p1154fc359e)">
     <use style="fill:#17becf;fill-opacity:0.3;stroke:#17becf;stroke-opacity:0.3;" x="357.647207" xlink:href="#C9_0_08134fcfee" y="161.936955"/>
    </g>
    <g clip-path="url(#p1154fc359e)">
     <use style="fill:#17becf;fill-opacity:0.501425;stroke:#17becf;stroke-opacity:0.501425;" x="334.416188" xlink:href="#C9_0_08134fcfee" y="184.47403"/>
    </g>
    <g clip-path="url(#p1154fc359e)">
     <use style="fill:#17becf;fill-opacity:0.632349;stroke:#17becf;stroke-opacity:0.632349;" x="319.566065" xlink:href="#C9_0_08134fcfee" y="198.478324"/>
    </g>
    <g clip-path="url(#p1154fc359e)">
     <use style="fill:#17becf;fill-opacity:0.754288;stroke:#17becf;stroke-opacity:0.754288;" x="306.305403" xlink:href="#C9_0_08134fcfee" y="210.049183"/>
    </g>
    <g clip-path="url(#p1154fc359e)">
     <use style="fill:#17becf;fill-opacity:0.886106;stroke:#17becf;stroke-opacity:0.886106;" x="291.173889" xlink:href="#C9_0_08134fcfee" y="224.613421"/>
    </g>
    <g clip-path="url(#p1154fc359e)">
     <use style="fill:#17becf;stroke:#17becf;" x="278.044518" xlink:href="#C9_0_08134fcfee" y="237.340416"/>
    </g>
   </g>
  </g>
 </g>
 <defs>
  <clipPath id="p1154fc359e">
   <rect height="266.112" width="357.12" x="57.6" y="41.472"/>
  </clipPath>
 </defs>
</svg>
